<svg width="97" height="81" viewBox="0 0 97 81" fill="none" xmlns="http://www.w3.org/2000/svg">
<path d="M40.8 0.399988C41.8 3.39998 42.3 5.89999 42.3 7.9C42.3 9.7 42 12.1 41.4 15.1C28 15.1 21.3 22 21.3 35.8C21.3 40.8 23.9 43.6 29.1 44.2C36.7 44.8 40.5 49.7 40.5 58.9C40.5 65.9 38.8 71.3 35.4 75.1C32.2 78.7 26.3 80.5 17.7 80.5C5.9 80.5 7.15256e-07 72.5 7.15256e-07 56.5C7.15256e-07 40.5 3.2 27.2 9.6 16.6C16 5.79999 26.4 0.399988 40.8 0.399988ZM95.1 0.399988C96.1 3.39998 96.6 5.89999 96.6 7.9C96.6 9.7 96.3 12.1 95.7 15.1C82.3 15.1 75.6 22 75.6 35.8C75.6 40.8 78.2 43.6 83.4 44.2C91 44.8 94.8 49.7 94.8 58.9C94.8 65.9 93.1 71.3 89.7 75.1C86.5 78.7 80.6 80.5 72 80.5C60.2 80.5 54.3 72.5 54.3 56.5C54.3 40.5 57.5 27.2 63.9 16.6C70.3 5.79999 80.7 0.399988 95.1 0.399988Z" fill="white"/>
</svg>
